<?xml version="1.0" encoding="utf-8"?>
<!-- Generator: Adobe Illustrator 16.0.0, SVG Export Plug-In . SVG Version: 6.00 Build 0)  -->
<!DOCTYPE svg PUBLIC "-//W3C//DTD SVG 1.1//EN" "http://www.w3.org/Graphics/SVG/1.1/DTD/svg11.dtd">
<svg version="1.1" id="Layer_1" xmlns="http://www.w3.org/2000/svg" xmlns:xlink="http://www.w3.org/1999/xlink" x="0px" y="0px"
	 width="1800px" height="309px" viewBox="0 0 1800 309" enable-background="new 0 0 1800 309" xml:space="preserve">
<circle fill="#BAC6D1" cx="1650.387" cy="114.019" r="89.708"/>
<circle fill="#9EA6AD" cx="1651.595" cy="114.019" r="64.663"/>
<path fill="#F9F9F9" d="M1646.634,30.956c-1.751,0-2.802,1.75-2.802,3.15v31.863c0,1.751-1.401,3.152-3.151,3.152
	s-3.15-1.401-3.15-3.152V34.106c0-1.75-1.053-3.15-2.802-3.15c-1.749-0.351-3.5,1.4-3.5,3.15v31.863
	c0,1.751-1.401,3.152-3.151,3.152l0,0c-1.751,0-3.151-1.401-3.151-3.152V34.106c0-1.75-1.051-3.15-2.801-3.15
	c-1.752-0.351-3.502,1.4-3.502,3.15v31.863c0,1.751-1.402,3.152-3.152,3.152l0,0c-1.75,0-3.151-1.401-3.151-3.152V34.106
	c0-1.75-1.05-3.15-2.8-3.15c-1.751-0.351-3.502,1.4-3.502,3.15v35.365c0,5.952,2.451,11.203,6.302,15.405
	c6.304,6.303,9.806,15.056,9.104,23.809l-7.002,75.629c0,0.701,0,1.751,0,2.451c0.698,7.703,8.054,13.304,15.755,11.904
	c7.004-1.401,11.556-8.053,10.854-15.055l-6.652-75.279c-0.699-9.104,2.801-17.506,9.104-23.81
	c3.852-3.851,6.303-9.454,6.303-15.405V34.106C1649.784,32.356,1648.384,30.956,1646.634,30.956z"/>
<path fill="#40596B" d="M1634.728,109.736h-13.304l-6.653,74.578c0,0.701,0,1.751,0,2.451c0.7,7.703,8.054,13.304,15.756,11.904
	c7.004-1.399,11.555-8.053,10.854-15.055L1634.728,109.736z"/>
<path fill="#F9F9F9" d="M1676.746,30.956c0,0-15.057,5.952-21.359,51.12c-2.45,18.557,1.399,36.765,8.404,53.921
	c0.699,1.75,1.05,3.851,1.05,5.953l-4.202,45.167c0,0.7,0,1.401,0,2.102c0.699,5.951,5.953,10.504,12.255,9.804
	c5.603-0.7,9.453-6.653,9.103-12.254L1676.746,30.956z"/>
<path fill="#FF6B57" d="M1664.842,141.598c0,0.351,0,0.351,0,0.701l-4.203,45.168c0,0.699,0,1.4,0,2.101
	c0.699,5.951,5.953,10.502,12.256,9.804c5.602-0.701,9.452-6.653,9.102-12.255l-1.4-45.167h-15.755L1664.842,141.598
	L1664.842,141.598z"/>
<g>
	<path fill="#ECCE93" d="M1429.755,66.643v56.912h-156.163V66.643c0-10.434,7.528-18.971,16.73-18.971h122.701
		C1422.225,47.671,1429.755,56.209,1429.755,66.643z"/>
	<path fill="#E5BD76" d="M1390.714,72.966h-16.731c-9.152,0-17.224,5.097-22.31,12.843c-5.087-7.746-13.155-12.843-22.309-12.843
		h-16.731c-15.377,0-27.886,14.184-27.886,31.619v31.618h133.854v-31.618C1418.599,87.149,1406.091,72.966,1390.714,72.966z"/>
	<path fill="#E4EDFB" d="M1346.095,123.555H1295.9v-18.97c0-10.46,7.508-18.971,16.732-18.971h16.731
		c9.224,0,16.73,8.511,16.73,18.971V123.555z"/>
	<path fill="#E5BD76" d="M1429.755,98.894v24.661h-156.163V98.894c1.785-0.443,3.681-0.633,5.578-0.633h145.008
		C1426.075,98.26,1427.97,98.451,1429.755,98.894z"/>
	<path fill="#E4EDFB" d="M1407.445,123.555h-50.194v-18.97c0-10.46,7.505-18.971,16.73-18.971h16.732
		c9.225,0,16.731,8.511,16.731,18.971V123.555z"/>
	<path fill="#D7E1F2" d="M1345.069,98.26h-48.144c-0.623,1.986-1.025,4.098-1.025,6.324v18.97h50.194v-18.97
		C1346.095,102.358,1345.695,100.246,1345.069,98.26z"/>
	<path fill="#D7E1F2" d="M1406.418,98.26h-48.135c-0.632,1.986-1.032,4.098-1.032,6.324v18.97h50.196v-18.97
		C1407.445,102.358,1407.042,100.246,1406.418,98.26z"/>
	<path fill="#FFFFFF" d="M1312.633,123.555h11.155v12.647h-11.155V123.555z"/>
	<path fill="#FFFFFF" d="M1379.56,123.555h11.154v12.647h-11.154V123.555z"/>
	<path fill="#5BCAFF" d="M1424.178,110.908H1279.17c-9.226,0-16.733,8.51-16.733,18.97v37.943h178.473v-37.943
		C1440.909,119.418,1433.403,110.908,1424.178,110.908z"/>
	<path fill="#28B9FF" d="M1262.437,142.526h178.473v25.295h-178.473V142.526z"/>
	<path fill="#E2C38D" d="M1262.437,155.173v44.266h11.155v-12.647h156.163v12.647h11.154v-44.266H1262.437z"/>
	<g>
		<path fill="#FFFFFF" d="M1334.94,60.318h11.154v12.647h-11.154V60.318z"/>
		<path fill="#FFFFFF" d="M1357.251,60.318h11.154v12.647h-11.154V60.318z"/>
	</g>
</g>
<g>
	<path fill="#FFDB2D" d="M243.287,17.736l-0.883-2.968l-2.984-0.879c-0.553-0.164-13.815-3.954-34.655,0.096
		c-12.01,2.333-24.188,6.801-36.195,13.277c-14.853,8.012-29.495,19.146-43.521,33.093c-30.256,30.089-48.783,60.006-58.997,79.805
		c-11.142,21.595-15.063,35.979-15.225,36.581l-1.39,5.18l18.661,6.184l6.22,18.558l5.21-1.38
		c0.605-0.161,15.068-4.062,36.785-15.141c19.909-10.158,49.991-28.583,80.248-58.67c14.025-13.948,25.222-28.509,33.278-43.279
		c6.513-11.94,11.006-24.051,13.352-35.995C247.262,31.475,243.452,18.287,243.287,17.736z"/>
	<path fill="#FFB62D" d="M242.403,14.769l0.883,2.968c0.165,0.551,3.975,13.739-0.097,34.464
		c-2.346,11.944-6.838,24.055-13.351,35.995c-8.056,14.77-19.253,29.33-33.278,43.279c-30.256,30.087-60.339,48.512-80.249,58.669
		c-21.716,11.079-36.18,14.979-36.785,15.141l-5.21,1.382l-6.22-18.559L242.403,14.769z"/>
	<path fill="#45A8FF" d="M97.386,91.538c-3.026,3.876-5.858,7.682-8.51,11.401h64.866v64.506c3.737-2.638,7.566-5.454,11.463-8.463
		V91.538H97.386L97.386,91.538z"/>
	<path fill="#299CFF" d="M153.742,102.939v64.506c3.738-2.638,7.566-5.454,11.464-8.463V91.538L153.742,102.939z"/>
	<path fill="#45A8FF" d="M76.938,120.921c-2.465,4.003-4.689,7.818-6.683,11.398h53.941v53.641
		c3.601-1.981,7.437-4.193,11.463-6.646v-58.394H76.938z"/>
	<path fill="#299CFF" d="M124.197,132.319v53.641c3.601-1.981,7.437-4.193,11.463-6.646v-58.394L124.197,132.319z"/>
	<path fill="#45A8FF" d="M213.264,51.807l30.789-30.617c-0.374-2.104-0.719-3.297-0.766-3.455l-0.883-2.968l-2.984-0.879
		c-0.157-0.046-1.359-0.389-3.473-0.761l-30.788,30.618L213.264,51.807z"/>
	<path fill="#299CFF" d="M213.264,51.807l30.789-30.617c-0.374-2.104-0.719-3.297-0.766-3.455l-0.883-2.968l-33.175,32.992
		L213.264,51.807z"/>
</g>
<g>
	<path fill="#FF4756" d="M315.472,124.961v34.074c0,3.485,2.851,6.336,6.335,6.336h17.846h52.487h99.375h52.488h23.947
		c3.484,0,6.336-2.851,6.336-6.336v-27.907c0-2.061-0.085-4.118-0.245-6.167H315.472z"/>
	<path fill="#FC2D39" d="M334.05,159.035v-34.074h-18.578v34.074c0,3.485,2.851,6.336,6.335,6.336h17.846h0.732
		C336.901,165.372,334.05,162.52,334.05,159.035z"/>
	<path fill="#FFD301" d="M520.92,111.903c-2.045-1.643-4.591-2.539-7.213-2.539H315.472v16.673h222.785L520.92,111.903z"/>
	<path fill="#FFC20C" d="M315.472,109.364h18.578v16.673h-18.578V109.364z"/>
	<path fill="#23A8FE" d="M569.208,103.165l-11.744-40.037H315.472v47.313h198.234c2.623,0,5.168,0.896,7.214,2.539l19.923,16
		c2.045,1.643,4.589,2.538,7.213,2.538h26.23v-0.388C574.287,121.579,572.566,112.106,569.208,103.165L569.208,103.165z"/>
	<path fill="#0193FA" d="M539.498,112.979c-2.046-1.643-4.59-2.539-7.213-2.539h-18.578c2.623,0,5.167,0.896,7.213,2.539l19.924,16
		c2.044,1.643,4.589,2.538,7.212,2.538h18.578c-2.623,0-5.168-0.895-7.213-2.538L539.498,112.979z"/>
	<path fill="#0193FA" d="M315.472,63.128h18.578v47.313h-18.578V63.128z"/>
	<path fill="#FFD301" d="M321.808,48.426c-3.485,0-6.335,2.851-6.335,6.335v9.443h242.308l-1.301-4.435
		c-2.563-6.823-9.088-11.343-16.378-11.343H321.808z"/>
	<path fill="#FFC20C" d="M340.385,48.426h-18.578c-3.484,0-6.335,2.851-6.335,6.335v9.443h18.578v-9.443
		C334.05,51.277,336.901,48.426,340.385,48.426z"/>
	<g>
		<path fill="#665E68" d="M501.436,110.442h12.271c1.032,0,2.05,0.143,3.031,0.411V64.206h-15.302V110.442z"/>
		<path fill="#665E68" d="M450.452,64.206h15.302v46.235h-15.302V64.206z"/>
		<path fill="#665E68" d="M399.468,64.206h15.301v46.235h-15.301V64.206z"/>
		<path fill="#665E68" d="M348.484,64.206h15.301v46.235h-15.301V64.206z"/>
	</g>
	<path fill="#554E56" d="M501.436,64.206h9.514v46.235h-9.514V64.206z"/>
	<path fill="#554E56" d="M450.452,64.206h9.513v46.235h-9.513V64.206z"/>
	<path fill="#554E56" d="M399.468,64.206h9.513v46.235h-9.513V64.206z"/>
	<path fill="#554E56" d="M348.484,64.206h9.513v46.235h-9.513V64.206z"/>
	<g>
		<path fill="#DFEBFA" d="M579.254,94.007l-5.275-16.479h-13.475c-2.23,0-4.038-1.809-4.038-4.038c0-2.231,1.808-4.039,4.038-4.039
			h16.423c1.756,0,3.311,1.135,3.846,2.807l6.174,19.286c0.68,2.124-0.49,4.398-2.615,5.079
			C582.221,97.297,579.939,96.145,579.254,94.007L579.254,94.007z"/>
	</g>
	<circle fill="#665E68" cx="517.76" cy="165.371" r="26.244"/>
	<path fill="#554E56" d="M505.661,165.372c0-12.042,8.115-22.184,19.172-25.272c-2.25-0.628-4.621-0.972-7.072-0.972
		c-14.495,0-26.244,11.75-26.244,26.244c0,14.494,11.75,26.244,26.244,26.244c2.451,0,4.821-0.344,7.072-0.972
		C513.776,187.555,505.661,177.414,505.661,165.372z"/>
	<circle fill="#DFEBFA" cx="517.76" cy="165.372" r="13.122"/>
	<path fill="#B1DBFC" d="M518.783,165.372c0-4.642,2.413-8.718,6.049-11.05c-2.041-1.31-4.467-2.071-7.072-2.071
		c-7.248,0-13.122,5.875-13.122,13.122c0,7.247,5.875,13.123,13.122,13.123c2.604,0,5.031-0.762,7.072-2.073
		C521.196,174.089,518.783,170.013,518.783,165.372L518.783,165.372z"/>
	<circle fill="#665E68" cx="365.897" cy="165.371" r="26.244"/>
	<path fill="#554E56" d="M353.799,165.372c0-12.042,8.113-22.184,19.171-25.272c-2.25-0.628-4.621-0.972-7.072-0.972
		c-14.494,0-26.244,11.75-26.244,26.244c0,14.494,11.75,26.244,26.244,26.244c2.451,0,4.822-0.344,7.072-0.972
		C361.912,187.555,353.799,177.414,353.799,165.372z"/>
	<circle fill="#DFEBFA" cx="365.897" cy="165.372" r="13.122"/>
	<path fill="#B1DBFC" d="M366.92,165.372c0-4.642,2.412-8.718,6.049-11.05c-2.04-1.31-4.467-2.071-7.072-2.071
		c-7.247,0-13.122,5.875-13.122,13.122c0,7.247,5.875,13.123,13.122,13.123c2.605,0,5.032-0.762,7.072-2.073
		C369.332,174.089,366.92,170.013,366.92,165.372L366.92,165.372z"/>
</g>
<g>
	<path fill="#FEC03F" d="M680.375,207.331c-3.079-1.286-4.524-4.807-3.227-7.861l37.651-88.661c1.297-3.055,4.845-4.488,7.923-3.202
		c3.08,1.288,4.525,4.808,3.227,7.862l-37.651,88.662C687.001,207.186,683.453,208.618,680.375,207.331z"/>
	<path fill="#ED961F" d="M811.857,204.131l-37.651-88.662c-1.297-3.054,0.147-6.574,3.227-7.862
		c3.079-1.287,6.627,0.146,7.923,3.202l37.651,88.661c1.298,3.055-0.147,6.575-3.226,7.861
		C816.703,208.618,813.155,207.186,811.857,204.131z"/>
	<path fill="#FEC03F" d="M801.121,174.391H699.035c-3.341,0-6.05-2.688-6.05-6.002c0-3.315,2.709-6.002,6.05-6.002h102.086
		c3.34,0,6.05,2.687,6.05,6.002C807.171,171.703,804.462,174.391,801.121,174.391z"/>
	<path fill="#ED961F" d="M801.121,162.387H750.28v12.004h50.841c3.341,0,6.05-2.688,6.05-6.002
		C807.171,165.074,804.462,162.387,801.121,162.387z"/>
	<path fill="#565656" d="M815.87,60.354H684.286c-3.341,0-6.05,2.687-6.05,6.002c0,17.236,7.565,33.397,21.301,45.511
		c28.002,24.694,73.074,24.699,101.083,0c13.735-12.114,21.3-28.275,21.3-45.511C821.92,63.041,819.211,60.354,815.87,60.354z"/>
	<path fill="#444444" d="M815.87,60.354h-65.59v70.021c40.015-0.098,71.64-29.054,71.64-64.019
		C821.92,63.041,819.211,60.354,815.87,60.354z"/>
	<path fill="#F1543F" d="M745.099,55.92c-3.021-1.415-4.315-4.991-2.89-7.989c2.033-4.275,3.836-5.336,3.836-10.394
		c0-8.464-7.208-9.222-5.897-24.119c0.291-3.302,3.229-5.742,6.553-5.457c3.328,0.288,5.791,3.198,5.501,6.501
		c-0.462,5.253,0.56,7.012,2.108,9.673c1.708,2.938,3.834,6.593,3.834,13.401c0,8.618-3.423,12.212-4.993,15.516
		C751.727,56.049,748.123,57.334,745.099,55.92z"/>
	<path fill="#EA2A1F" d="M754.31,24.135c-1.548-2.661-2.57-4.419-2.108-9.673c0.169-1.921-0.598-3.706-1.922-4.923v46.369
		c2.304-1.086,2.678-2.645,4.03-4.97c1.708-2.937,3.834-6.593,3.834-13.401C758.144,30.728,756.018,27.073,754.31,24.135z"/>
	<path fill="#F1543F" d="M713.64,55.92c-3.021-1.415-4.315-4.991-2.89-7.989c2.033-4.275,3.835-5.336,3.835-10.394
		c0-8.464-7.208-9.222-5.896-24.119c0.291-3.302,3.234-5.742,6.553-5.457c3.329,0.288,5.792,3.198,5.501,6.501
		c-0.462,5.253,0.56,7.012,2.108,9.673c1.708,2.938,3.835,6.593,3.835,13.401c0,8.618-3.423,12.212-4.993,15.516
		C720.268,56.049,716.663,57.334,713.64,55.92z"/>
	<path fill="#FEC03F" d="M750.078,206.803c-3.341,0-6.05-2.688-6.05-6.002v-76.426c0-3.315,2.708-6.002,6.05-6.002
		s6.05,2.687,6.05,6.002v76.426C756.128,204.115,753.419,206.803,750.078,206.803z"/>
	<path fill="#ED961F" d="M750.28,118.382v88.41c3.247-0.106,5.848-2.745,5.848-5.992v-76.426
		C756.128,121.127,753.527,118.489,750.28,118.382z"/>
	<path fill="#EA2A1F" d="M774.945,55.92c-3.022-1.415-4.316-4.991-2.891-7.989c2.033-4.275,3.836-5.336,3.836-10.394
		c0-8.464-7.208-9.222-5.897-24.119c0.291-3.302,3.234-5.742,6.553-5.457c3.329,0.288,5.791,3.198,5.501,6.501
		c-0.462,5.253,0.56,7.012,2.107,9.673c1.709,2.938,3.835,6.593,3.835,13.401c0,8.618-3.423,12.212-4.992,15.516
		C781.572,56.049,777.968,57.334,774.945,55.92z"/>
</g>
<path fill="#702D22" d="M1056.926,182.255l-55.667-120.144c-0.001-0.002-0.001-0.002-0.001-0.004l-0.011-0.023
	c-0.013-0.029-0.03-0.059-0.045-0.087c-0.027-0.054-0.056-0.111-0.083-0.163c-0.025-0.044-0.053-0.086-0.08-0.129
	c-0.023-0.04-0.047-0.079-0.074-0.118c-0.033-0.049-0.07-0.097-0.105-0.143c-0.022-0.029-0.043-0.061-0.066-0.086
	c-0.041-0.052-0.082-0.097-0.124-0.144c-0.024-0.025-0.045-0.051-0.068-0.074c-0.044-0.045-0.089-0.089-0.137-0.132
	c-0.024-0.023-0.049-0.047-0.074-0.07c-0.045-0.041-0.094-0.079-0.142-0.117c-0.029-0.021-0.055-0.044-0.085-0.067
	c-0.047-0.036-0.097-0.069-0.146-0.102c-0.031-0.022-0.062-0.044-0.095-0.063c-0.051-0.031-0.104-0.06-0.156-0.089
	c-0.031-0.018-0.064-0.036-0.098-0.052c-0.058-0.031-0.115-0.056-0.174-0.082c-0.03-0.012-0.06-0.027-0.089-0.04
	c-0.069-0.03-0.142-0.053-0.214-0.078c-0.019-0.008-0.039-0.015-0.059-0.022c-0.09-0.027-0.18-0.091-0.271-0.114
	c-0.005,0-0.009-0.044-0.015-0.044h-0.002c-0.189,0-0.382-0.026-0.578-0.037c-0.006,0-0.011,0.021-0.017,0.021
	c-0.067-0.003-0.14,0.009-0.208,0.009c-0.03,0.002-0.062,0.005-0.095,0.005c-0.04,0.002-0.081,0.011-0.123,0.013
	c-0.06,0.005-0.118,0.009-0.175,0.018c-0.031,0.003-0.057,0.009-0.086,0.015c-0.07,0.011-0.142,0.021-0.211,0.036
	c-0.003,0.002-0.008,0.002-0.013,0.003c-0.026,0.006-0.054,0.015-0.081,0.021c-0.063,0.015-0.127,0.031-0.189,0.052
	c-0.045,0.013-0.086,0.029-0.128,0.043c-0.048,0.016-0.097,0.032-0.146,0.052c-0.05,0.021-0.098,0.042-0.145,0.064
	c-0.041,0.018-0.08,0.036-0.119,0.054c-0.05,0.025-0.098,0.052-0.146,0.079c-0.037,0.022-0.072,0.041-0.107,0.062
	c-0.047,0.029-0.092,0.06-0.136,0.091c-0.037,0.024-0.072,0.047-0.106,0.072c-0.042,0.031-0.082,0.063-0.122,0.096
	c-0.036,0.028-0.073,0.057-0.108,0.087c-0.037,0.03-0.07,0.065-0.106,0.098c-0.036,0.036-0.072,0.069-0.106,0.105
	c-0.03,0.033-0.062,0.065-0.092,0.101c-0.034,0.037-0.068,0.077-0.102,0.117c-0.029,0.037-0.059,0.072-0.086,0.111
	c-0.03,0.04-0.061,0.079-0.09,0.122c-0.029,0.043-0.057,0.087-0.084,0.13c-0.023,0.038-0.049,0.076-0.07,0.116
	c-0.03,0.053-0.058,0.107-0.084,0.16c-0.016,0.031-0.032,0.058-0.047,0.087l-56.373,120.171c-0.506,1.079-0.425,2.34,0.213,3.346
	c0.639,1.004,1.747,1.613,2.938,1.613h112.051c1.188,0,2.292-0.606,2.933-1.607C1057.34,184.592,1057.423,183.333,1056.926,182.255z
	"/>
<path fill="#594235" d="M1100.166,67.474c-1.923,0-3.482-1.556-3.482-3.48V51.466c0-1.922,1.56-3.479,3.482-3.479
	s3.479,1.557,3.479,3.479v12.527C1103.645,65.915,1102.087,67.474,1100.166,67.474z"/>
<path fill="#594235" d="M998.09,67.474c-1.921,0-3.48-1.556-3.48-3.48V51.466c0-1.922,1.56-3.479,3.48-3.479
	c1.922,0,3.479,1.557,3.479,3.479v12.527C1001.568,65.915,1000.012,67.474,998.09,67.474z"/>
<path fill="#F26944" d="M998.848,60.134c-1.592-0.355-3.215,0.441-3.908,1.917l-56.373,120.171c-0.506,1.078-0.426,2.34,0.212,3.344
	c0.64,1.004,1.747,1.615,2.938,1.615h56.373c1.922,0,3.479-1.558,3.479-3.48V63.531C1001.568,61.899,1000.438,60.488,998.848,60.134
	z"/>
<path fill="#D36E00" d="M1050.992,185.803c-12.291-15.887-22.388-16.684-34.69-12.815c-0.967,0.3-2.014,0.172-2.873-0.363
	c-0.858-0.528-1.446-1.404-1.604-2.402l-17.136-105.95c0.056,0.244,0.136,0.486,0.243,0.718l45.044,66.095l10.637,54.076
	C1050.718,185.39,1050.845,185.608,1050.992,185.803z"/>
<path fill="#DD9300" d="M1158.998,182.241L1103.32,62.069c-0.567-1.231-1.801-2.019-3.154-2.019H998.09
	c-0.074,0-0.148,0.003-0.223,0.009c-0.051,0-0.098,0.005-0.148,0.014c-0.131,0.009-0.265,0.032-0.394,0.065
	c-0.071,0.013-0.136,0.031-0.205,0.051c-0.019,0.003-0.032,0.008-0.05,0.012c-0.104,0.033-0.206,0.071-0.307,0.113
	c-0.075,0.026-0.154,0.064-0.224,0.101c-0.079,0.038-0.157,0.08-0.229,0.125c-0.226,0.131-0.435,0.289-0.622,0.469
	c-0.035,0.037-0.077,0.075-0.109,0.111c-0.131,0.135-0.247,0.279-0.354,0.431c-0.021,0.033-0.046,0.071-0.069,0.103
	c-0.009,0.013-0.018,0.027-0.022,0.043c-0.107,0.169-0.2,0.351-0.27,0.538c-0.029,0.05-0.047,0.101-0.062,0.152
	c-0.069,0.19-0.115,0.386-0.146,0.586c-0.011,0.059-0.021,0.116-0.023,0.175c-0.009,0.047-0.009,0.089-0.015,0.134
	c-0.014,0.181-0.01,0.372,0.006,0.556c0.009,0.085,0.018,0.164,0.032,0.247l0.031,0.187c0.056,0.244,0.136,0.486,0.243,0.718
	l55.681,120.171c0.105,0.228,0.226,0.451,0.38,0.641c0.803,0.981,1.438,1.311,2.534,1.369c0.079,0.003,0.158,0.01,0.241,0.01
	h102.076c1.187,0,2.292-0.607,2.934-1.606C1159.415,184.573,1159.499,183.315,1158.998,182.241z"/>
<path fill="#D68003" d="M1158.771,185.576c-0.64,0.993-1.743,1.606-2.928,1.606h-9.703c1.185,0,2.287-0.613,2.929-1.606
	c0.64-1.003,0.726-2.263,0.223-3.336l-55.678-120.17c-0.563-1.234-1.796-2.022-3.154-2.022h9.702c1.357,0,2.591,0.788,3.156,2.022
	l55.68,120.17C1159.499,183.313,1159.413,184.572,1158.771,185.576z"/>
<path fill="#FFB127" d="M1124.901,140.487l-29.694-64.493c-0.569-1.234-1.804-2.024-3.162-2.024h-73.307
	c-1.19,0-2.3,0.609-2.938,1.61c-0.639,1.005-0.722,2.266-0.215,3.343l30.158,64.493c0.572,1.226,1.8,2.007,3.15,2.007h72.846
	c1.188,0,2.291-0.604,2.931-1.604C1125.312,142.82,1125.397,141.564,1124.901,140.487z"/>
<path fill="#EFD6A3" d="M1092.374,103.5l-6.96-13.803c-0.587-1.178-1.794-1.807-3.112-1.807h-41.524c-1.199,0-2.313,0.5-2.95,1.515
	s-0.706,2.228-0.186,3.306l6.729,14.005c0.581,1.204,1.798,2.054,3.134,2.054h41.757c1.207,0,2.327-0.742,2.962-1.768
	C1092.856,105.976,1092.913,104.578,1092.374,103.5z"/>
<g>
	<path fill="#594235" d="M941.717,187.182c-0.89,0-1.782-0.338-2.462-1.02l-8.119-8.12c-1.357-1.359-1.357-3.563,0-4.922
		c1.359-1.359,3.563-1.359,4.923,0l8.12,8.119c1.357,1.36,1.357,3.563,0,4.922C943.498,186.842,942.606,187.182,941.717,187.182z"/>
	<path fill="#594235" d="M1156.076,187.182c-0.893,0-1.783-0.338-2.463-1.02c-1.359-1.359-1.359-3.563,0-4.922l8.12-8.119
		c1.358-1.359,3.564-1.359,4.923,0c1.357,1.358,1.357,3.563,0,4.922l-8.119,8.12
		C1157.857,186.842,1156.964,187.182,1156.076,187.182z"/>
	<path fill="#594235" d="M1053.613,187.182c-0.891,0-1.78-0.338-2.461-1.02c-1.358-1.359-1.358-3.563,0-4.922l8.12-8.119
		c1.358-1.359,3.562-1.359,4.919,0c1.36,1.358,1.36,3.563,0,4.922l-8.118,8.12C1055.394,186.842,1054.503,187.182,1053.613,187.182z
		"/>
</g>
<text transform="matrix(1 0 0 1 33.4365 290.4385)" fill="#333333" font-family="'NanumSquareEB'" font-size="66">서핑강습</text>
<text transform="matrix(1 0 0 1 325.0977 290.4385)" fill="#333333" font-family="'NanumSquareEB'" font-size="66">서핑버스</text>
<text transform="matrix(1 0 0 1 595.6743 290.4385)" fill="#333333" font-family="'NanumSquareEB'" font-size="66">바베큐파티</text>
<text transform="matrix(1 0 0 1 961.5215 290.4385)" fill="#333333" font-family="'NanumSquareEB'" font-size="66">야영장</text>
<text transform="matrix(1 0 0 1 1289.5449 290.4385)" fill="#333333" font-family="'NanumSquareEB'" font-size="66">숙소</text>
<text transform="matrix(1 0 0 1 1590.2783 290.4385)" fill="#333333" font-family="'NanumSquareEB'" font-size="66">맛집</text>
</svg>
